PathFileType  4	(X/Y/Z) C:\Users\antoi\Documents\MyRepositories\mobilecap\ResultsAnalysis
DataRate	CameraRate	NumFrames	NumMarkers	Units	OrigDataRate	OrigDataStartFrame	OrigNumFrames
100.0	100.0	4	51	mm	100.0	82	216
Frame#	Time	r_knee			r_shank_antsup			r_ankle			r_calc			r_5meta			r_toe			L_knee			L_shank_antsup			L_ankle			L_calc			L_5meta			L_toe			r_sh2			r_sh3			r_sh4			L_sh2			L_sh3			r_thigh1			r_thigh2			r_thigh3			r_thigh4			r_thigh5			L_thigh1			L_thigh2			L_thigh3			L_thigh4			r.ASIS			r.PSIS			L.ASIS			L.PSIS			C7			R_Shoulder			L_Shoulder			R_Sternum			L_Sternum			R_humerus			R_elbow_med			R_elbow_lat			R_forearm			R_wrist_radius			R_wrist_ulna			L_humerus			L_elbow_med			L_elbow_lat			L_forearm			L_wrist_radius			L_wrist_ulna			R_HJC			L_HJC			R_HJC_reg			L_HJC_reg			
		X1	Y1	Z1	X2	Y2	Z2	X3	Y3	Z3	X4	Y4	Z4	X5	Y5	Z5	X6	Y6	Z6	X7	Y7	Z7	X8	Y8	Z8	X9	Y9	Z9	X10	Y10	Z10	X11	Y11	Z11	X12	Y12	Z12	X13	Y13	Z13	X14	Y14	Z14	X15	Y15	Z15	X16	Y16	Z16	X17	Y17	Z17	X18	Y18	Z18	X19	Y19	Z19	X20	Y20	Z20	X21	Y21	Z21	X22	Y22	Z22	X23	Y23	Z23	X24	Y24	Z24	X25	Y25	Z25	X26	Y26	Z26	X27	Y27	Z27	X28	Y28	Z28	X29	Y29	Z29	X30	Y30	Z30	X31	Y31	Z31	X32	Y32	Z32	X33	Y33	Z33	X34	Y34	Z34	X35	Y35	Z35	X36	Y36	Z36	X37	Y37	Z37	X38	Y38	Z38	X39	Y39	Z39	X40	Y40	Z40	X41	Y41	Z41	X42	Y42	Z42	X43	Y43	Z43	X44	Y44	Z44	X45	Y45	Z45	X46	Y46	Z46	X47	Y47	Z47	X48	Y48	Z48	X49	Y49	Z49	X50	Y50	Z50	X51	Y51	Z51	

82	0.81000000	-477.34375	708.45306	-407.74662	-466.81873	635.68279	-383.32443	-507.08288	332.26893	-424.99381	-573.40454	300.86172	-472.12237	-412.57380	271.18226	-391.43354	-362.69855	292.88954	-439.79190	-532.89126	701.59439	-754.47362	-521.70969	626.47165	-758.13412	-677.70697	359.32416	-709.18546	-752.82987	354.85123	-656.80741	-612.99405	272.24194	-728.97240	-554.25534	284.14562	-681.42316	-477.18814	522.93655	-379.74613	-539.68547	640.51966	-400.89534	-556.10875	525.35361	-402.59621	-600.32825	668.54631	-770.93554	-646.66471	555.66624	-763.30744	-539.54339	1014.48146	-429.76418	-487.81915	915.42198	-414.75660	-522.56323	877.89945	-370.35473	-628.85441	977.43991	-368.56612	-578.98393	871.15940	-369.62181	-564.36391	994.75287	-747.94679	-513.58916	865.45707	-759.43356	-673.54480	953.66483	-758.75585	-614.39333	824.52467	-763.35930	-570.93293	1128.56494	-444.65223	-744.91554	1170.56471	-508.56970	-579.77123	1129.19263	-689.74668	-753.76276	1170.49316	-615.49872	-539.69457	1613.05483	-579.01314	-508.43243	1598.43469	-466.01781	-474.88327	1594.63360	-695.33259	-444.21520	1505.64877	-549.36901	-438.88479	1501.37635	-594.40735	-596.46555	1588.98988	-270.60118	-699.95757	1537.89545	-213.76088	-649.92055	1596.22028	-198.56352	-600.37480	1525.93818	-107.72543	-569.93529	1448.59848	-23.73311	-600.21576	1467.77355	1.89076	-447.48045	1556.53740	-802.75033	-535.25879	1456.32772	-990.53545	-496.98884	1517.55150	-1008.51970	-412.45096	1477.33240	-937.91000	-353.30843	1408.34691	-858.37835	-332.12928	1397.69544	-887.47218	-645.24924	1062.80723	-465.70971	-648.16488	1065.81438	-665.95801	-639.60171	1059.80997	-473.30327	-652.95011	1059.70560	-634.61940	
83	0.82000000	-467.54060	694.23697	-407.39848	-457.04635	621.44788	-382.89221	-490.41420	316.98102	-425.79551	-554.28618	282.04981	-474.01821	-394.02858	260.37751	-390.25061	-344.29384	284.64026	-436.93041	-516.89544	691.37336	-753.60069	-501.66266	616.80601	-757.05421	-645.24193	341.85195	-710.19800	-720.50181	334.21120	-658.56815	-576.76281	257.25287	-729.10344	-518.84137	272.24751	-681.38523	-465.27817	508.52469	-379.46815	-529.87092	624.90782	-401.75346	-543.94601	509.55143	-404.00852	-581.94448	655.03070	-771.46325	-622.88671	540.12116	-764.75449	-529.21840	1000.33512	-427.39960	-477.88238	901.21874	-413.79031	-512.49024	863.10436	-369.67615	-618.68714	962.74867	-366.45357	-568.98956	856.46449	-368.90154	-553.90115	983.98303	-746.68400	-501.39094	855.32683	-758.29595	-662.53372	941.14506	-756.02483	-601.59860	812.85995	-761.62748	-559.39511	1114.17460	-442.80998	-733.09301	1158.32334	-504.78611	-569.18611	1116.43477	-687.48947	-742.44544	1159.26504	-611.56120	-524.43464	1599.31198	-577.62676	-493.53469	1585.34896	-465.17566	-460.37285	1580.52781	-693.35611	-429.29702	1491.38816	-547.46663	-424.25884	1487.12699	-593.22016	-586.90419	1581.08252	-272.26789	-694.48425	1535.29930	-218.99821	-643.10029	1592.13956	-202.13702	-603.27635	1521.80891	-106.22219	-582.54834	1445.70385	-18.74840	-613.52063	1466.90852	4.38335	-438.42368	1544.36371	-802.55603	-540.84305	1453.43902	-988.20592	-500.70001	1513.38251	-1006.51090	-415.27282	1467.60236	-940.54181	-357.12030	1393.97155	-864.88634	-336.94490	1383.67795	-894.54449	-634.27051	1049.26741	-463.48209	-638.38712	1053.73911	-663.68139	-628.72212	1046.14022	-471.66196	-642.82082	1047.55754	-632.66544	
84	0.83000000	-457.77950	678.88180	-406.89752	-447.10602	606.13743	-382.37374	-473.69700	300.95182	-426.78489	-535.21425	262.93107	-475.97859	-375.63722	248.55059	-389.65994	-326.24047	275.34068	-435.01380	-500.84778	680.37797	-752.79000	-482.06567	606.42542	-755.93147	-613.35669	324.79739	-711.65006	-688.53317	313.71049	-659.90753	-541.38628	242.97316	-729.69901	-484.27089	260.81408	-682.01460	-453.29184	493.14002	-379.31769	-519.50894	608.35081	-402.78959	-531.50451	492.89786	-405.47371	-563.74983	641.10059	-771.48177	-599.45980	524.41888	-765.77024	-519.07959	985.51165	-424.99462	-467.74545	886.32809	-412.78592	-502.25659	847.77018	-368.95934	-608.44453	947.19806	-364.65119	-558.77451	841.09564	-368.02489	-543.26865	972.13392	-745.49962	-489.02229	844.26249	-757.05991	-651.35041	927.56776	-753.48843	-588.58120	800.17032	-759.96911	-547.84129	1098.92825	-441.05950	-721.19994	1145.13675	-501.00800	-558.61750	1102.44036	-685.14431	-731.10136	1147.04173	-607.80901	-509.32107	1584.41053	-576.06901	-478.83972	1570.93949	-463.67570	-446.22658	1565.21719	-691.74846	-414.47599	1476.57251	-545.97919	-409.52437	1471.95591	-592.08728	-578.21080	1571.92965	-273.63067	-689.96096	1531.31833	-224.76218	-637.28302	1586.62941	-206.16693	-606.40809	1516.58591	-106.72490	-594.56766	1442.18392	-17.31334	-625.66451	1465.35087	4.35558	-429.67003	1530.92136	-802.07519	-546.07199	1449.40068	-984.29489	-504.06339	1507.52690	-1002.87110	-418.17296	1456.32812	-942.32102	-360.90714	1378.21808	-870.96640	-341.99001	1368.27813	-901.52407	-623.31766	1034.86235	-461.17736	-628.62956	1040.52123	-661.31949	-617.79825	1031.51586	-470.02409	-632.68029	1034.37797	-630.57958	
85	0.84000000	-447.85837	662.70368	-406.00690	-437.05122	589.82787	-381.78743	-456.80758	284.07737	-427.69552	-516.17420	243.38772	-477.61280	-357.16022	235.81401	-389.31790	-308.37765	265.00297	-434.16057	-484.80227	668.54145	-751.89798	-463.01660	595.32631	-755.05274	-582.28061	308.09569	-713.29751	-657.14287	293.46894	-660.79925	-506.94137	228.98603	-730.32166	-450.65040	249.66925	-683.10947	-441.06476	476.78022	-379.25683	-508.78958	590.84913	-403.90479	-518.85466	475.39111	-406.77350	-545.93942	626.70413	-771.01140	-576.56181	508.46630	-766.14394	-509.14174	969.89923	-422.75255	-457.35070	870.65572	-411.53548	-492.05149	831.81046	-367.85753	-598.06727	931.19176	-362.93836	-548.38472	825.11272	-367.10171	-532.39704	959.27977	-744.06606	-476.34255	832.27778	-755.72631	-639.91241	913.10329	-751.19681	-575.27527	786.67514	-758.40383	-536.20278	1083.06140	-438.98783	-709.26449	1130.94259	-497.31517	-548.16095	1087.28265	-682.62765	-719.79216	1133.78927	-603.92253	-494.21444	1568.44020	-574.21561	-464.25532	1555.31945	-461.50967	-432.48138	1548.87525	-690.39998	-399.68921	1460.75866	-544.67451	-395.07216	1455.87069	-590.70756	-570.50052	1561.68730	-274.90587	-686.27414	1526.10056	-231.33538	-632.45423	1579.64406	-211.09338	-609.56841	1510.35550	-109.18366	-605.34097	1437.85164	-18.45164	-636.62977	1462.65473	1.71012	-421.14468	1516.18635	-801.22257	-550.82015	1443.62261	-978.46459	-506.88541	1499.72173	-997.74412	-421.09190	1443.42229	-942.95429	-364.50575	1361.12317	-876.58043	-347.14814	1351.41834	-908.12451	-612.30602	1019.72482	-458.55502	-618.82787	1026.15981	-658.63845	-606.66760	1015.82911	-468.02573	-622.48939	1020.11080	-628.20726	
